<?xml version="1.0" encoding="utf-8"?>
<!-- Generator: Adobe Illustrator 24.0.1, SVG Export Plug-In . SVG Version: 6.00 Build 0)  -->
<svg version="1.1" id="Layer_1" xmlns="http://www.w3.org/2000/svg" xmlns:xlink="http://www.w3.org/1999/xlink" x="0px" y="0px"
	 viewBox="0 0 19 19" style="enable-background:new 0 0 19 19;" xml:space="preserve">
<style type="text/css">
	.st0{fill:#53FFFF;}
</style>
<g>
	<path class="st0" d="M9.5,0.5c-4.96,0-9,4.04-9,9c0,4.96,4.04,9,9,9c4.96,0,9-4.04,9-9C18.5,4.54,14.46,0.5,9.5,0.5z M9.5,17.5
		c-4.41,0-8-3.59-8-8s3.59-8,8-8s8,3.59,8,8S13.91,17.5,9.5,17.5z"/>
	<polygon class="st0" points="10,4.5 9,4.5 9,9 4.5,9 4.5,10 9,10 9,14.5 10,14.5 10,10 14.5,10 14.5,9 10,9 	"/>
</g>
</svg>
