<?xml version="1.0" encoding="utf-8"?>
<!-- Generator: Adobe Illustrator 24.0.1, SVG Export Plug-In . SVG Version: 6.00 Build 0)  -->
<svg version="1.1" id="Layer_1" xmlns="http://www.w3.org/2000/svg" xmlns:xlink="http://www.w3.org/1999/xlink" x="0px" y="0px"
	 viewBox="0 0 142 37" style="enable-background:new 0 0 142 37;" xml:space="preserve">
<style type="text/css">
	.st0{fill:#FFFFFF;}
	.st1{fill:#53FFFF;}
	.st2{fill:#FF3399;}
	.st3{fill:none;stroke:#000000;stroke-width:0.8689;stroke-miterlimit:10;}
</style>
<path class="st0" d="M141.64,20.71c0-1.41-1.13-2.56-2.53-2.6c0.49-0.47,0.79-1.13,0.79-1.87v-4.47c0-1.32-0.98-2.41-2.26-2.58
	c-0.17-1.27-1.26-2.26-2.58-2.26h-8.94c-1.32,0-2.41,0.98-2.58,2.26c-0.59,0.08-1.12,0.36-1.52,0.77V9.53c0-0.4-0.09-0.78-0.25-1.12
	c0.16-0.34,0.25-0.72,0.25-1.12V2.82c0-1.44-1.17-2.61-2.61-2.61h-4.47c-0.95,0-1.78,0.51-2.24,1.27c-0.46-0.76-1.28-1.27-2.24-1.27
	h-4.47c-1.44,0-2.61,1.17-2.61,2.61v7.13c-0.4-0.41-0.92-0.69-1.51-0.77c-0.17-1.27-1.26-2.26-2.58-2.26h-8.94
	c-1.32,0-2.41,0.98-2.58,2.26c-0.8,0.11-1.49,0.58-1.89,1.24c-0.4-0.66-1.08-1.14-1.89-1.24c-0.17-1.27-1.26-2.26-2.58-2.26h-6.33
	v-4.1c0-1.44-1.17-2.61-2.61-2.61h-4.47c-1.44,0-2.61,1.17-2.61,2.61v4.89c-0.39-0.4-0.91-0.69-1.49-0.77V2.82
	c0-1.44-1.17-2.61-2.61-2.61h-4.47c-1.44,0-2.61,1.17-2.61,2.61v4.13c-0.79,0.11-1.47,0.59-1.87,1.25
	c-0.46-0.76-1.28-1.27-2.23-1.27H38.95c-0.95,0-1.78,0.51-2.24,1.27c-0.46-0.76-1.28-1.27-2.24-1.27h-4.47
	c-0.95,0-1.78,0.51-2.24,1.27c-0.46-0.76-1.28-1.27-2.24-1.27h-4.47c-0.95,0-1.78,0.51-2.24,1.27c-0.46-0.76-1.28-1.27-2.24-1.27
	H5.43c-1.32,0-2.41,0.98-2.58,2.26c-1.27,0.17-2.26,1.26-2.26,2.58v6.71c0,1.41,1.13,2.56,2.53,2.6c-0.49,0.47-0.79,1.13-0.79,1.87
	v4.47c0,1.44,1.17,2.61,2.61,2.61H16.1c1.32,0,2.41-0.98,2.58-2.26c0.8-0.11,1.49-0.58,1.89-1.25c0.22,0.37,0.53,0.68,0.89,0.9
	c-0.76,0.46-1.26,1.29-1.26,2.24v4.47c0,1.44,1.17,2.61,2.61,2.61h6.71c1.32,0,2.41-0.98,2.58-2.26c1.16-0.16,2.08-1.07,2.24-2.24
	c1.27-0.17,2.26-1.26,2.26-2.58v-1.89c0.58-0.08,1.1-0.37,1.49-0.77v0.42c0,1.44,1.17,2.61,2.61,2.61h4.47
	c0.95,0,1.78-0.51,2.24-1.27c0.46,0.76,1.28,1.27,2.24,1.27h4.47c1.44,0,2.61-1.17,2.61-2.61v-0.42c0.4,0.41,0.92,0.69,1.52,0.77
	c0.17,1.27,1.26,2.26,2.58,2.26h4.47c0.95,0,1.78-0.51,2.24-1.27c0.46,0.76,1.28,1.27,2.24,1.27h4.47c1.44,0,2.61-1.17,2.61-2.61
	v-7.84c0.29,0.63,0.83,1.12,1.49,1.36v6.49c0,1.44,1.17,2.61,2.61,2.61h4.47c1.44,0,2.61-1.17,2.61-2.61v-0.42
	c0.4,0.41,0.92,0.69,1.52,0.77c0.17,1.27,1.26,2.26,2.58,2.26h8.94c1.32,0,2.41-0.98,2.58-2.26c0.59-0.08,1.12-0.36,1.51-0.77v0.42
	c0,1.44,1.17,2.61,2.61,2.61h4.47c0.95,0,1.78-0.51,2.24-1.27c0.46,0.76,1.28,1.27,2.24,1.27h4.47c1.44,0,2.61-1.17,2.61-2.61v-0.42
	c0.4,0.41,0.92,0.69,1.52,0.77c0.17,1.27,1.26,2.26,2.58,2.26h8.94c1.32,0,2.41-0.98,2.58-2.26c0.59-0.08,2.2-0.54,2.26-2.77
	C141.69,23.41,141.64,22.22,141.64,20.71z M132.7,18.84c0.02,0,0.03,0,0.05,0c-0.02,0.02-0.03,0.03-0.05,0.04V18.84z"/>
<polygon class="st1" points="110.48,18.47 110.48,16.24 110.48,14 110.48,11.76 110.48,9.53 110.48,7.29 110.48,5.06 110.48,2.82 
	108.24,2.82 106.01,2.82 106.01,5.06 106.01,7.29 106.01,9.53 106.01,11.76 106.01,14 106.01,16.24 106.01,18.47 "/>
<polygon class="st1" points="128.36,18.47 128.36,16.24 128.36,14 130.59,14 132.83,14 132.83,16.24 135.06,16.24 137.3,16.24 
	137.3,14 137.3,11.76 135.06,11.76 135.06,9.53 132.83,9.53 130.59,9.53 128.36,9.53 126.12,9.53 126.12,11.76 123.89,11.76 
	123.89,14 123.89,16.24 123.89,18.47 "/>
<path class="st1" d="M101.54,18.47v-2.23V14v-2.24H99.3V9.53h-2.24h-2.24H92.6h-2.24v2.24h-2.24V14v2.24v2.23H101.54z M92.6,14h2.24
	h2.24v2.24h-2.24H92.6V14z"/>
<polygon class="st1" points="119.42,18.47 119.42,16.24 119.42,14 119.42,11.76 119.42,9.53 117.18,9.53 114.95,9.53 114.95,11.76 
	114.95,14 114.95,16.24 114.95,18.47 "/>
<polygon class="st1" points="119.42,7.29 119.42,5.06 119.42,2.82 117.18,2.82 114.95,2.82 114.95,5.06 114.95,7.29 117.18,7.29 "/>
<polygon class="st1" points="72.48,18.47 72.48,16.24 74.72,16.24 74.72,14 76.95,14 79.19,14 79.19,16.24 79.19,18.47 83.66,18.47 
	83.66,16.24 83.66,14 83.66,11.76 81.42,11.76 81.42,9.53 79.19,9.53 76.95,9.53 74.72,9.53 74.72,11.76 72.48,11.76 72.48,9.53 
	72.48,7.29 72.48,5.06 72.48,2.82 70.25,2.82 68.01,2.82 68.01,5.06 68.01,7.29 68.01,9.53 68.01,11.76 68.01,14 68.01,16.24 
	68.01,18.47 "/>
<polygon class="st1" points="56.83,16.24 56.83,18.47 61.3,18.47 61.3,16.24 61.3,14 63.54,14 63.54,11.76 63.54,9.53 61.3,9.53 
	61.3,7.29 61.3,5.06 61.3,2.82 59.07,2.82 56.83,2.82 56.83,5.06 56.83,7.29 56.83,9.53 54.6,9.53 54.6,11.76 54.6,14 56.83,14 "/>
<polygon class="st1" points="25.54,18.47 25.54,16.24 25.54,14 25.54,11.76 25.54,9.53 23.31,9.53 21.07,9.53 21.07,11.76 21.07,14 
	21.07,16.24 21.07,18.47 "/>
<polygon class="st1" points="14.37,18.47 14.37,16.24 12.13,16.24 9.9,16.24 7.66,16.24 7.66,14 9.9,14 12.13,14 14.37,14 16.6,14 
	16.6,11.76 16.6,9.53 14.37,9.53 12.13,9.53 9.9,9.53 7.66,9.53 5.43,9.53 5.43,11.76 3.19,11.76 3.19,14 3.19,16.24 3.19,18.47 "/>
<polygon class="st1" points="43.42,18.47 43.42,16.24 43.42,14 45.66,14 47.89,14 47.89,16.24 47.89,18.47 52.36,18.47 52.36,16.24 
	52.36,14 52.36,11.76 50.13,11.76 50.13,9.53 47.89,9.53 45.66,9.53 43.42,9.53 41.19,9.53 38.95,9.53 38.95,11.76 38.95,14 
	38.95,16.24 38.95,18.47 "/>
<polygon class="st1" points="34.48,18.47 34.48,16.24 34.48,14 34.48,11.76 34.48,9.53 32.25,9.53 30.01,9.53 30.01,11.76 30.01,14 
	30.01,16.24 30.01,18.47 "/>
<polygon class="st2" points="49.63,18.47 49.63,18.47 49.63,20.71 49.63,22.94 49.63,25.18 49.63,27.41 51.87,27.41 54.1,27.41 
	54.1,25.18 54.1,22.94 54.1,20.71 54.1,18.47 54.1,18.47 "/>
<polygon class="st2" points="69.75,18.47 69.75,18.47 69.75,20.71 69.75,22.94 69.75,25.18 69.75,27.41 71.98,27.41 74.22,27.41 
	74.22,25.18 74.22,22.94 74.22,20.71 74.22,18.47 74.22,18.47 "/>
<polygon class="st2" points="40.69,18.47 40.69,18.47 40.69,20.71 40.69,22.94 40.69,25.18 40.69,27.41 42.93,27.41 45.16,27.41 
	45.16,25.18 45.16,22.94 45.16,20.71 45.16,18.47 45.16,18.47 "/>
<polygon class="st2" points="16.1,18.47 4.93,18.47 4.93,18.47 7.16,18.47 7.16,20.71 9.4,20.71 11.63,20.71 13.87,20.71 
	13.87,22.94 11.63,22.94 9.4,22.94 7.16,22.94 4.93,22.94 4.93,25.18 4.93,27.41 7.16,27.41 9.4,27.41 11.63,27.41 13.87,27.41 
	16.1,27.41 16.1,25.18 18.34,25.18 18.34,22.94 18.34,20.71 18.34,18.47 16.1,18.47 "/>
<polygon class="st2" points="31.75,18.47 31.75,18.47 31.75,20.71 31.75,22.94 29.52,22.94 27.28,22.94 27.28,20.71 27.28,18.47 
	27.28,18.47 22.81,18.47 22.81,18.47 22.81,20.71 22.81,22.94 22.81,25.18 25.05,25.18 25.05,27.41 27.28,27.41 27.28,29.65 
	25.05,29.65 22.81,29.65 22.81,31.88 22.81,34.12 25.05,34.12 27.28,34.12 29.52,34.12 29.52,31.88 31.75,31.88 31.75,29.65 
	33.99,29.65 33.99,27.41 33.99,25.18 36.22,25.18 36.22,22.94 36.22,20.71 36.22,18.47 36.22,18.47 "/>
<polygon class="st2" points="63.04,20.71 63.04,18.47 63.04,18.47 58.57,18.47 58.57,18.47 58.57,20.71 58.57,22.94 58.57,25.18 
	60.81,25.18 60.81,27.41 63.04,27.41 65.28,27.41 65.28,25.18 65.28,22.94 63.04,22.94 "/>
<polygon class="st2" points="116.69,18.47 116.69,18.47 116.69,20.71 116.69,22.94 116.69,25.18 116.69,27.41 118.92,27.41 
	121.16,27.41 121.16,25.18 121.16,22.94 121.16,20.71 121.16,18.47 121.16,18.47 "/>
<polygon class="st2" points="134.57,20.71 134.57,22.94 132.33,22.94 130.1,22.94 130.1,20.71 130.1,18.47 130.1,18.47 
	125.63,18.47 125.63,18.47 125.63,20.71 125.63,22.94 125.63,25.18 127.86,25.18 127.86,27.41 130.1,27.41 132.33,27.41 
	134.57,27.41 136.8,27.41 136.8,25.18 139.04,25.18 139.04,22.94 139.04,20.71 136.8,20.71 "/>
<polygon class="st2" points="107.75,18.47 107.75,18.47 107.75,20.71 107.75,22.94 107.75,25.18 107.75,27.41 109.98,27.41 
	112.22,27.41 112.22,25.18 112.22,22.94 112.22,20.71 112.22,18.47 112.22,18.47 "/>
<polygon class="st2" points="94.33,18.47 96.57,18.47 98.8,18.47 101.04,18.47 103.27,18.47 103.27,18.47 89.86,18.47 89.86,18.47 
	89.86,20.71 89.86,22.94 89.86,25.18 92.1,25.18 92.1,27.41 94.33,27.41 96.57,27.41 98.8,27.41 101.04,27.41 101.04,25.18 
	103.27,25.18 103.27,22.94 103.27,20.71 101.04,20.71 98.8,20.71 98.8,22.94 96.57,22.94 94.33,22.94 94.33,20.71 "/>
<polygon class="st2" points="80.92,18.47 80.92,18.47 80.92,20.71 80.92,22.94 80.92,25.18 80.92,27.41 83.16,27.41 85.39,27.41 
	85.39,25.18 85.39,22.94 85.39,20.71 85.39,18.47 85.39,18.47 "/>
<polygon class="st3" points="110.48,16.24 110.48,14 110.48,11.76 110.48,9.53 110.48,7.29 110.48,5.06 110.48,2.82 108.24,2.82 
	106.01,2.82 106.01,5.06 106.01,7.29 106.01,9.53 106.01,11.76 106.01,14 106.01,16.24 106.01,18.47 107.75,18.47 107.75,18.47 
	107.75,20.71 107.75,22.94 107.75,25.18 107.75,27.41 109.98,27.41 112.22,27.41 112.22,25.18 112.22,22.94 112.22,20.71 
	112.22,18.47 112.22,18.47 110.48,18.47 "/>
<path class="st3" d="M101.54,16.24V14v-2.24H99.3V9.53h-2.24h-2.24H92.6h-2.24v2.24h-2.24V14v2.24v2.23h1.74v0v2.24v2.24v2.24h2.24
	v2.24h2.24h2.24h2.24h2.24v-2.24h2.24v-2.24v-2.24h-2.24H98.8v2.24h-2.24h-2.24v-2.24v-2.24h2.24h2.24h2.24l0.5,0V16.24z M92.6,14
	h2.24h2.24v2.24h-2.24H92.6V14z"/>
<polygon class="st3" points="119.42,16.24 119.42,14 119.42,11.76 119.42,9.53 117.18,9.53 114.95,9.53 114.95,11.76 114.95,14 
	114.95,16.24 114.95,18.47 116.69,18.47 116.69,18.47 116.69,20.71 116.69,22.94 116.69,25.18 116.69,27.41 118.92,27.41 
	121.16,27.41 121.16,25.18 121.16,22.94 121.16,20.71 121.16,18.47 121.16,18.47 119.42,18.47 "/>
<polygon class="st3" points="119.42,7.29 119.42,5.06 119.42,2.82 117.18,2.82 114.95,2.82 114.95,5.06 114.95,7.29 117.18,7.29 "/>
<polygon class="st3" points="83.66,16.24 83.66,14 83.66,11.76 81.42,11.76 81.42,9.53 79.19,9.53 76.95,9.53 74.72,9.53 
	74.72,11.76 72.48,11.76 72.48,9.53 72.48,7.29 72.48,5.06 72.48,2.82 70.25,2.82 68.01,2.82 68.01,5.06 68.01,7.29 68.01,9.53 
	68.01,11.76 68.01,14 68.01,16.24 68.01,18.47 69.75,18.47 69.75,18.47 69.75,20.71 69.75,22.94 69.75,25.18 69.75,27.41 
	71.98,27.41 74.22,27.41 74.22,25.18 74.22,22.94 74.22,20.71 74.22,18.47 74.22,18.47 72.48,18.47 72.48,16.24 74.72,16.24 
	74.72,14 76.95,14 79.19,14 79.19,16.24 79.19,18.47 80.92,18.47 80.92,18.47 80.92,20.71 80.92,22.94 80.92,25.18 80.92,27.41 
	83.16,27.41 85.39,27.41 85.39,25.18 85.39,22.94 85.39,20.71 85.39,18.47 85.39,18.47 83.66,18.47 "/>
<polygon class="st3" points="52.36,16.24 52.36,14 52.36,11.76 50.13,11.76 50.13,9.53 47.89,9.53 45.66,9.53 43.42,9.53 
	41.19,9.53 38.95,9.53 38.95,11.76 38.95,14 38.95,16.24 38.95,18.47 40.69,18.47 40.69,18.47 40.69,20.71 40.69,22.94 40.69,25.18 
	40.69,27.41 42.93,27.41 45.16,27.41 45.16,25.18 45.16,22.94 45.16,20.71 45.16,18.47 45.16,18.47 43.42,18.47 43.42,16.24 
	43.42,14 45.66,14 47.89,14 47.89,16.24 47.89,18.47 49.63,18.47 49.63,18.47 49.63,20.71 49.63,22.94 49.63,25.18 49.63,27.41 
	51.87,27.41 54.1,27.41 54.1,25.18 54.1,22.94 54.1,20.71 54.1,18.47 54.1,18.47 52.36,18.47 "/>
<polygon class="st3" points="34.48,16.24 34.48,14 34.48,11.76 34.48,9.53 32.25,9.53 30.01,9.53 30.01,11.76 30.01,14 30.01,16.24 
	30.01,18.47 31.75,18.47 31.75,18.47 31.75,20.71 31.75,22.94 29.52,22.94 27.28,22.94 27.28,20.71 27.28,18.47 27.28,18.47 
	25.54,18.47 25.54,16.24 25.54,14 25.54,11.76 25.54,9.53 23.31,9.53 21.07,9.53 21.07,11.76 21.07,14 21.07,16.24 21.07,18.47 
	22.81,18.47 22.81,18.47 22.81,20.71 22.81,22.94 22.81,25.18 25.05,25.18 25.05,27.41 27.28,27.41 27.28,29.65 25.05,29.65 
	22.81,29.65 22.81,31.88 22.81,34.12 25.05,34.12 27.28,34.12 29.52,34.12 29.52,31.88 31.75,31.88 31.75,29.65 33.99,29.65 
	33.99,27.41 33.99,25.18 36.22,25.18 36.22,22.94 36.22,20.71 36.22,18.47 36.22,18.47 34.48,18.47 "/>
<polygon class="st3" points="14.37,18.47 14.37,16.24 7.66,16.24 7.66,14 16.6,14 16.6,9.53 5.43,9.53 5.43,11.76 3.19,11.76 
	3.19,18.47 4.93,18.47 7.16,18.47 7.16,20.71 13.87,20.71 13.87,22.94 4.93,22.94 4.93,27.41 16.1,27.41 16.1,25.18 18.34,25.18 
	18.34,18.47 "/>
<polygon class="st3" points="63.04,20.71 63.04,18.47 63.04,18.47 61.3,18.47 61.3,16.24 61.3,14 63.54,14 63.54,11.76 63.54,9.53 
	61.3,9.53 61.3,7.29 61.3,5.06 61.3,2.82 59.07,2.82 56.83,2.82 56.83,5.06 56.83,7.29 56.83,9.53 54.6,9.53 54.6,11.76 54.6,14 
	56.83,14 56.83,16.24 56.83,18.47 58.57,18.47 58.57,18.47 58.57,20.71 58.57,22.94 58.57,25.18 60.81,25.18 60.81,27.41 
	63.04,27.41 65.28,27.41 65.28,25.18 65.28,22.94 63.04,22.94 "/>
<polygon class="st3" points="134.57,20.71 134.57,22.94 132.33,22.94 130.1,22.94 130.1,20.71 130.1,18.47 130.1,18.47 
	128.36,18.47 128.36,16.24 128.36,14 130.59,14 132.83,14 132.83,16.24 135.06,16.24 137.3,16.24 137.3,14 137.3,11.76 
	135.06,11.76 135.06,9.53 132.83,9.53 130.59,9.53 128.36,9.53 126.12,9.53 126.12,11.76 123.89,11.76 123.89,14 123.89,16.24 
	123.89,18.47 125.63,18.47 125.63,18.47 125.63,20.71 125.63,22.94 125.63,25.18 127.86,25.18 127.86,27.41 130.1,27.41 
	132.33,27.41 134.57,27.41 136.8,27.41 136.8,25.18 139.04,25.18 139.04,22.94 139.04,20.71 136.8,20.71 "/>
</svg>
